<svg viewBox="0 0 96 96" xmlns="http://www.w3.org/2000/svg" role="img" aria-label="Satis app icon">
  <!-- Satis app icon · Literata 600 S outlined · bg #0e1c14 mark #88aa99 -->
  <rect width="96" height="96" rx="21" fill="#0e1c14"/>
  <path transform="translate(30.15 62.00) scale(0.06000 -0.06000)" fill="#88aa99" d="M296.5999755859375 -14Q240.69989013671875 -14 191.0999755859375 4.60003662109375Q141.50006103515625 23.2000732421875 97.90020751953125 53.5999755859375L81.0003662109375 -9.89984130859375H66.400390625L49.10028076171875 225.09979248046875L63.4002685546875 228.3997802734375Q75.70025634765625 175.69964599609375 98.30029296875 133.899658203125Q120.90032958984375 92.09967041015625 150.80035400390625 62.649749755859375Q180.70037841796875 33.1998291015625 216.100341796875 17.89990234375Q251.50030517578125 2.5999755859375 289.400146484375 2.5999755859375Q334.80029296875 2.5999755859375 366.8503723144531 19.750030517578125Q398.90045166015625 36.90008544921875 416.1504821777344 67.60015869140625Q433.4005126953125 98.30023193359375 433.4005126953125 138.10028076171875Q433.4005126953125 186.200439453125 414.4505310058594 218.55056762695312Q395.50054931640625 250.90069580078125 358.1505432128906 273.60076904296875Q320.800537109375 296.30084228515625 264.6004638671875 314.30084228515625Q216.60009765625 329.6009521484375 178.65005493164062 349.801025390625Q140.70001220703125 370.0010986328125 113.85012817382812 396.5010986328125Q87.000244140625 423.0010986328125 72.70037841796875 456.9010009765625Q58.4005126953125 490.8009033203125 58.4005126953125 534.5006713867188Q58.4005126953125 574.00048828125 70.90045166015625 606.6503601074219Q83.400390625 639.3002319335938 105.65029907226562 664.7501525878906Q127.90020751953125 690.2000732421875 158.15011596679688 707.9500427246094Q188.4000244140625 725.7000122070312 223.89996337890625 734.8500061035156Q259.39990234375 744 297.69989013671875 744Q348.3997802734375 744 391.0497741699219 726.699951171875Q433.69976806640625 709.39990234375 464.69964599609375 684.39990234375L475.5997314453125 744H489.5997314453125L517.799560546875 518.7999267578125L502.49957275390625 516.199951171875Q483.89971923828125 587 455.29974365234375 634.2000122070312Q426.69976806640625 681.4000244140625 389.1497497558594 704.9000244140625Q351.5997314453125 728.4000244140625 303.999755859375 728.4000244140625Q240.799560546875 728.4000244140625 206.64950561523438 692.599853515625Q172.49945068359375 656.7996826171875 172.49945068359375 600.399658203125Q172.49945068359375 555.2997436523438 190.9993896484375 526.2997436523438Q209.49932861328125 497.29974365234375 245.04934692382812 477.4496765136719Q280.599365234375 457.599609375 332.29962158203125 439.3995361328125Q381.89984130859375 422.199462890625 421.89984130859375 401.3994140625Q461.89984130859375 380.599365234375 490.2497253417969 354.2493591308594Q518.599609375 327.89935302734375 533.9494934082031 294.1494445800781Q549.2993774414062 260.3995361328125 549.2993774414062 216.5997314453125Q549.2993774414062 164.7999267578125 528.5494689941406 122.5Q507.799560546875 80.2000732421875 471.7996826171875 49.350067138671875Q435.7998046875 18.50006103515625 390.5498962402344 2.250030517578125Q345.29998779296875 -14 296.5999755859375 -14Z"/>
  <rect x="37.29" y="70" width="21.42" height="2" rx="1" fill="#88aa99"/>
</svg>
