<svg viewBox="0 0 360 120" xmlns="http://www.w3.org/2000/svg" role="img" aria-label="Satis.">
  <!-- Satis wordmark · Literata 600 outlined to vector paths · fill #0e1c14 -->
  <g>
    <path transform="translate(8.00 84.00) scale(0.07200 -0.07200)" fill="#0e1c14" d="M296.5999755859375 -14Q240.69989013671875 -14 191.0999755859375 4.60003662109375Q141.50006103515625 23.2000732421875 97.90020751953125 53.5999755859375L81.0003662109375 -9.89984130859375H66.400390625L49.10028076171875 225.09979248046875L63.4002685546875 228.3997802734375Q75.70025634765625 175.69964599609375 98.30029296875 133.899658203125Q120.90032958984375 92.09967041015625 150.80035400390625 62.649749755859375Q180.70037841796875 33.1998291015625 216.100341796875 17.89990234375Q251.50030517578125 2.5999755859375 289.400146484375 2.5999755859375Q334.80029296875 2.5999755859375 366.8503723144531 19.750030517578125Q398.90045166015625 36.90008544921875 416.1504821777344 67.60015869140625Q433.4005126953125 98.30023193359375 433.4005126953125 138.10028076171875Q433.4005126953125 186.200439453125 414.4505310058594 218.55056762695312Q395.50054931640625 250.90069580078125 358.1505432128906 273.60076904296875Q320.800537109375 296.30084228515625 264.6004638671875 314.30084228515625Q216.60009765625 329.6009521484375 178.65005493164062 349.801025390625Q140.70001220703125 370.0010986328125 113.85012817382812 396.5010986328125Q87.000244140625 423.0010986328125 72.70037841796875 456.9010009765625Q58.4005126953125 490.8009033203125 58.4005126953125 534.5006713867188Q58.4005126953125 574.00048828125 70.90045166015625 606.6503601074219Q83.400390625 639.3002319335938 105.65029907226562 664.7501525878906Q127.90020751953125 690.2000732421875 158.15011596679688 707.9500427246094Q188.4000244140625 725.7000122070312 223.89996337890625 734.8500061035156Q259.39990234375 744 297.69989013671875 744Q348.3997802734375 744 391.0497741699219 726.699951171875Q433.69976806640625 709.39990234375 464.69964599609375 684.39990234375L475.5997314453125 744H489.5997314453125L517.799560546875 518.7999267578125L502.49957275390625 516.199951171875Q483.89971923828125 587 455.29974365234375 634.2000122070312Q426.69976806640625 681.4000244140625 389.1497497558594 704.9000244140625Q351.5997314453125 728.4000244140625 303.999755859375 728.4000244140625Q240.799560546875 728.4000244140625 206.64950561523438 692.599853515625Q172.49945068359375 656.7996826171875 172.49945068359375 600.399658203125Q172.49945068359375 555.2997436523438 190.9993896484375 526.2997436523438Q209.49932861328125 497.29974365234375 245.04934692382812 477.4496765136719Q280.599365234375 457.599609375 332.29962158203125 439.3995361328125Q381.89984130859375 422.199462890625 421.89984130859375 401.3994140625Q461.89984130859375 380.599365234375 490.2497253417969 354.2493591308594Q518.599609375 327.89935302734375 533.9494934082031 294.1494445800781Q549.2993774414062 260.3995361328125 549.2993774414062 216.5997314453125Q549.2993774414062 164.7999267578125 528.5494689941406 122.5Q507.799560546875 80.2000732421875 471.7996826171875 49.350067138671875Q435.7998046875 18.50006103515625 390.5498962402344 2.250030517578125Q345.29998779296875 -14 296.5999755859375 -14Z"/>
    <path transform="translate(61.84 84.00) scale(0.07200 -0.07200)" fill="#0e1c14" d="M188.6002197265625 -14Q121.4002685546875 -14 84.00030517578125 21.350006103515625Q46.600341796875 56.70001220703125 46.600341796875 121.5999755859375Q46.600341796875 173.09991455078125 73.2003173828125 205.2999267578125Q99.80029296875 237.49993896484375 161.9002685546875 254.89996337890625Q224.000244140625 272.29998779296875 330.6002197265625 277.199951171875V403.3997802734375Q330.6002197265625 443.1998291015625 321.00018310546875 467.29986572265625Q311.400146484375 491.39990234375 290.7500915527344 502.4499206542969Q270.10003662109375 513.4999389648438 236.89996337890625 513.4999389648438Q206.49981689453125 513.4999389648438 174.2998046875 503.1499328613281Q142.09979248046875 492.7999267578125 125.69976806640625 476.39990234375Q148.1995849609375 451.30010986328125 159.69952392578125 434.00018310546875Q171.199462890625 416.70025634765625 175.54946899414062 405.2502746582031Q179.89947509765625 393.80029296875 179.89947509765625 384.50030517578125Q179.89947509765625 365.10040283203125 163.44955444335938 350.2504577636719Q146.9996337890625 335.4005126953125 116.7998046875 335.4005126953125Q83.800048828125 335.4005126953125 67.70013427734375 351.8004150390625Q51.6002197265625 368.2003173828125 51.6002197265625 395.6002197265625Q51.6002197265625 427.6002197265625 77.90020751953125 458.70013427734375Q104.2001953125 489.800048828125 150.95004272460938 509.89996337890625Q197.69989013671875 529.9998779296875 257.49945068359375 529.9998779296875Q324.09930419921875 529.9998779296875 369.89910888671875 510.9498596191406Q415.69891357421875 491.89984130859375 439.29876708984375 449.9499206542969Q462.89862060546875 408 462.89862060546875 339.50030517578125V82.3997802734375Q462.89862060546875 55.5997314453125 473.898681640625 44.0997314453125Q484.89874267578125 32.5997314453125 502.69879150390625 32.5997314453125Q514.3988037109375 32.5997314453125 525.7488708496094 35.649749755859375Q537.0989379882812 38.69976806640625 549.198974609375 44.7998046875L554.198974609375 37.49981689453125Q528.799072265625 7.49993896484375 499.999267578125 -3.250030517578125Q471.199462890625 -14 444.1995849609375 -14Q394.09979248046875 -14 369.09991455078125 10.949981689453125Q344.10003662109375 35.89996337890625 337.400146484375 82.50006103515625Q322.2000732421875 47.5999755859375 301.4500427246094 26.249969482421875Q280.70001220703125 4.89996337890625 253.15005493164062 -4.550018310546875Q225.60009765625 -14 188.6002197265625 -14ZM249.199462890625 34.599609375Q274.399658203125 34.599609375 292.5498352050781 46.99969482421875Q310.70001220703125 59.3997802734375 320.6501159667969 81.44992065429688Q330.6002197265625 103.50006103515625 330.6002197265625 132.000244140625V262.5999755859375Q274.999755859375 261.29998779296875 241.699462890625 249.44998168945312Q208.399169921875 237.5999755859375 193.9990234375 210.64993286132812Q179.598876953125 183.69989013671875 179.598876953125 136.49981689453125Q179.598876953125 85.1998291015625 197.19903564453125 59.89971923828125Q214.7991943359375 34.599609375 249.199462890625 34.599609375Z"/>
    <path transform="translate(112.66 84.00) scale(0.07200 -0.07200)" fill="#0e1c14" d="M228.9998779296875 -14Q188.29998779296875 -14 158.30010986328125 0.350006103515625Q128.30023193359375 14.70001220703125 112.35031127929688 47.5Q96.400390625 80.29998779296875 96.400390625 134.49993896484375V499.9998779296875H27.50030517578125V510.69989013671875Q70.10003662109375 514.599853515625 94.99993896484375 530.4497985839844Q119.89984130859375 546.2997436523438 133.14981079101562 579.5497131347656Q146.3997802734375 612.7996826171875 153.19970703125 667.2997436523438L219.49896240234375 676.6996459960938L228.3988037109375 670.5997314453125V515.9998779296875H368.29913330078125V499.9998779296875H228.3988037109375V149.89959716796875Q228.3988037109375 104.29949951171875 242.44882202148438 80.79949951171875Q256.49884033203125 57.29949951171875 291.7989501953125 57.29949951171875Q316.198974609375 57.29949951171875 340.2490539550781 67.64950561523438Q364.29913330078125 77.99951171875 383.29913330078125 99.09954833984375L392.399169921875 91.799560546875Q360.69927978515625 41.29974365234375 323.1494445800781 13.649871826171875Q285.599609375 -14 228.9998779296875 -14Z"/>
    <path transform="translate(151.95 84.00) scale(0.07200 -0.07200)" fill="#0e1c14" d="M36.400146484375 0V12L82.8004150390625 16.800048828125Q98.90045166015625 18.50006103515625 103.40045166015625 28.40008544921875Q107.90045166015625 38.30010986328125 107.90045166015625 63.30010986328125V437.1998291015625Q107.90045166015625 470.39990234375 101.75045776367188 483.39990234375Q95.6004638671875 496.39990234375 73.30047607421875 497.69989013671875L30.2001953125 501.39990234375L31.2001953125 511.9998779296875L233.1988525390625 521.8998413085938L240.1988525390625 515.9998779296875V60.800048828125Q240.1988525390625 36.90008544921875 245.49884033203125 28.2000732421875Q250.798828125 19.50006103515625 266.69879150390625 17.50006103515625L314.49920654296875 11.29998779296875V0ZM162.1995849609375 613.600341796875Q123.70001220703125 613.600341796875 100.85018920898438 634.4502258300781Q78.0003662109375 655.3001098632812 78.0003662109375 689.8998413085938Q78.0003662109375 723.8995971679688 100.55020141601562 745.0994873046875Q123.10003662109375 766.2993774414062 162.1995849609375 766.2993774414062Q202.59912109375 766.2993774414062 224.698974609375 745.5994873046875Q246.798828125 724.8995971679688 246.798828125 690.2998657226562Q246.798828125 656.0001220703125 223.94900512695312 634.8002319335938Q201.09918212890625 613.600341796875 162.1995849609375 613.600341796875Z"/>
    <path transform="translate(187.43 84.00) scale(0.07200 -0.07200)" fill="#0e1c14" d="M61.50006103515625 -15.49993896484375 47.0001220703125 174.399658203125 61.60009765625 175.9996337890625Q77.50006103515625 111.999755859375 101.50006103515625 74.89984130859375Q125.50006103515625 37.7999267578125 157.70001220703125 21.749969482421875Q189.89996337890625 5.70001220703125 230.49981689453125 5.70001220703125Q280.5999755859375 5.70001220703125 310.29998779296875 32.5001220703125Q340 59.30023193359375 340 107.10028076171875Q340 140.30035400390625 323.20001220703125 158.60040283203125Q306.4000244140625 176.90045166015625 277.9499816894531 187.35049438476562Q249.49993896484375 197.800537109375 213.999755859375 207.90057373046875Q181.90008544921875 217.6004638671875 152.7001953125 229.20037841796875Q123.50030517578125 240.80029296875 100.80029296875 258.3502502441406Q78.10028076171875 275.90020751953125 65.30023193359375 303.2001953125Q52.50018310546875 330.50018310546875 52.50018310546875 370.90020751953125Q52.50018310546875 417.10003662109375 74.25009155273438 453.0999755859375Q96 489.09991455078125 136.89984130859375 509.5498962402344Q177.7996826171875 529.9998779296875 235.29949951171875 529.9998779296875Q278.599609375 529.9998779296875 309.4495544433594 518.2998046875Q340.29949951171875 506.5997314453125 364.29925537109375 490.1998291015625L378.09930419921875 529.9998779296875H388.999267578125L401.7991943359375 366.50006103515625L385.5992431640625 367.800048828125Q364.1993408203125 439.999755859375 329.8493957519531 475.7998046875Q295.49945068359375 511.599853515625 237.69940185546875 511.599853515625Q192.1993408203125 511.599853515625 166.04928588867188 490.3497619628906Q139.89923095703125 469.09967041015625 139.89923095703125 429.29949951171875Q139.89923095703125 396.29937744140625 157.39923095703125 377.6493225097656Q174.89923095703125 358.999267578125 203.54922485351562 348.499267578125Q232.19921875 337.999267578125 265.49920654296875 327.3992919921875Q298.3990478515625 317.599365234375 327.4490051269531 305.0494079589844Q356.49896240234375 292.49945068359375 379.89898681640625 274.2494812011719Q403.29901123046875 255.99951171875 416.3990478515625 228.04953002929688Q429.49908447265625 200.09954833984375 429.49908447265625 159.49957275390625Q429.49908447265625 105.29974365234375 404.2991943359375 66.54983520507812Q379.09930419921875 27.7999267578125 334.199462890625 6.89996337890625Q289.29962158203125 -14 229.999755859375 -14Q191.09979248046875 -14 154.24990844726562 -3.050018310546875Q117.4000244140625 7.89996337890625 87 31.10003662109375L74.10003662109375 -15.49993896484375Z"/>
    <path transform="translate(223.91 84.00) scale(0.07200 -0.07200)" fill="#0e1c14" d="M162.2 -14Q125.6002197265625 -14 102.55032348632812 7.829920654296874Q79.50042724609375 29.659841308593748 79.50042724609375 64.19970703125Q79.50042724609375 98.89959716796875 102.37759621360085 120.54953002929688Q125.25476518110796 142.199462890625 161.85454545454544 142.199462890625Q199.09979248046875 142.199462890625 221.99969482421875 120.71619669596353Q244.89959716796875 99.23293050130208 244.89959716796875 65.06638590494792Q244.89959716796875 30.599853515625 222.02242820046166 8.2999267578125Q199.14525923295454 -14 162.2 -14Z"/>
  </g>
  <rect x="15.71" y="92" width="27.42" height="2" rx="1" fill="#0e1c14"/>
</svg>
